<svg width="104" height="98" viewBox="0 0 104 98" fill="none" xmlns="http://www.w3.org/2000/svg">
<path d="M58.1097 49L76.7431 31.4825C77.559 30.7136 78.0175 29.6707 78.0175 28.5833C78.0175 27.4959 77.559 26.4531 76.7431 25.6842C75.9271 24.9153 74.8204 24.4833 73.6664 24.4833C72.5124 24.4833 71.4057 24.9153 70.5897 25.6842L51.9997 43.2425L33.4097 25.6842C32.5938 24.9153 31.487 24.4833 30.3331 24.4833C29.1791 24.4833 28.0724 24.9153 27.2564 25.6842C26.4404 26.4531 25.982 27.4959 25.982 28.5833C25.982 29.6707 26.4404 30.7136 27.2564 31.4825L45.8897 49L27.2564 66.5175C26.8502 66.8971 26.5279 67.3487 26.3079 67.8463C26.0879 68.3439 25.9746 68.8776 25.9746 69.4167C25.9746 69.9557 26.0879 70.4894 26.3079 70.987C26.5279 71.4846 26.8502 71.9362 27.2564 72.3158C27.6592 72.6986 28.1385 73.0023 28.6666 73.2096C29.1946 73.4169 29.761 73.5237 30.3331 73.5237C30.9051 73.5237 31.4715 73.4169 31.9996 73.2096C32.5276 73.0023 33.0069 72.6986 33.4097 72.3158L51.9997 54.7575L70.5897 72.3158C70.9926 72.6986 71.4718 73.0023 71.9999 73.2096C72.528 73.4169 73.0944 73.5237 73.6664 73.5237C74.2385 73.5237 74.8048 73.4169 75.3329 73.2096C75.861 73.0023 76.3402 72.6986 76.7431 72.3158C77.1492 71.9362 77.4716 71.4846 77.6916 70.987C77.9116 70.4894 78.0249 69.9557 78.0249 69.4167C78.0249 68.8776 77.9116 68.3439 77.6916 67.8463C77.4716 67.3487 77.1492 66.8971 76.7431 66.5175L58.1097 49Z" fill="#363C45"/>
</svg>
