<svg width="233" height="117" viewBox="0 0 233 117" fill="none" xmlns="http://www.w3.org/2000/svg">
<path d="M95.6914 55.957L99.9102 72.4102L93.3711 74.2734C91.1914 70.3594 88.7188 67.5 85.9531 65.6953C83.1875 63.8672 80.2461 62.9531 77.1289 62.9531C75.1133 62.9531 73.5195 63.3633 72.3477 64.1836C71.1992 65.0039 70.625 65.918 70.625 66.9258C70.625 68.0742 71.1523 69.1406 72.207 70.125C73.2383 71.1094 75.1367 71.9883 77.9023 72.7617L87.3242 75.5039C92.5508 77.0039 96.2773 78.9961 98.5039 81.4805C100.707 83.9883 101.809 86.9062 101.809 90.2344C101.809 94.4766 100.121 98.0625 96.7461 100.992C92.9727 104.227 88.2852 105.844 82.6836 105.844C80.082 105.844 77.6914 105.516 75.5117 104.859C73.332 104.18 71.0586 103.055 68.6914 101.484L67.1445 105H61.9062L58.4258 85.9805L65 84.3984C66.5469 88.2656 68.9492 91.5 72.207 94.1016C75.4883 96.6797 79.0859 97.9688 83 97.9688C84.7578 97.9688 86.2109 97.7461 87.3594 97.3008C88.5312 96.8555 89.4102 96.2344 89.9961 95.4375C90.582 94.6406 90.875 93.8203 90.875 92.9766C90.875 91.5703 90.1953 90.3633 88.8359 89.3555C87.4531 88.3477 85.0391 87.3516 81.5938 86.3672L73.4023 83.9766C72.1602 83.625 70.4727 82.9688 68.3398 82.0078C66.2305 81.0234 64.6016 80.0039 63.4531 78.9492C62.3281 77.8945 61.3906 76.5469 60.6406 74.9062C59.8906 73.2422 59.5156 71.4961 59.5156 69.668C59.5156 67.0664 60.2305 64.6758 61.6602 62.4961C63.1133 60.293 65.2812 58.5117 68.1641 57.1523C71.0703 55.793 74.2812 55.1133 77.7969 55.1133C82.0391 55.1133 85.8711 56.2148 89.293 58.418L90.6641 55.957H95.6914Z" fill="#D5E4F8"/>
<path d="M95.6914 55.957L97.6287 55.4603L97.2433 53.957H95.6914V55.957ZM99.9102 72.4102L100.458 74.3336L102.331 73.7999L101.847 71.9134L99.9102 72.4102ZM93.3711 74.2734L91.6238 75.2465L92.3949 76.6312L93.9192 76.1969L93.3711 74.2734ZM85.9531 65.6953L84.8502 67.3638L84.8602 67.3703L85.9531 65.6953ZM72.3477 64.1836L71.2007 62.5451L71.1929 62.5506L71.1852 62.5561L72.3477 64.1836ZM72.207 70.125L73.588 68.6783L73.5799 68.6705L73.5717 68.6629L72.207 70.125ZM77.9023 72.7617L78.4612 70.8414L78.4511 70.8385L78.441 70.8356L77.9023 72.7617ZM87.3242 75.5039L86.7653 77.4242L86.7725 77.4263L87.3242 75.5039ZM98.5039 81.4805L100.006 80.1605L99.9999 80.153L99.9933 80.1456L98.5039 81.4805ZM96.7461 100.992L98.0477 102.511L98.0572 102.503L96.7461 100.992ZM75.5117 104.859L74.9163 106.769L74.9257 106.772L74.9351 106.774L75.5117 104.859ZM68.6914 101.484L69.797 99.8177L67.8175 98.5046L66.8608 100.679L68.6914 101.484ZM67.1445 105V107H68.4496L68.9752 105.805L67.1445 105ZM61.9062 105L59.9389 105.36L60.239 107H61.9062V105ZM58.4258 85.9805L57.9579 84.036L56.1178 84.4788L56.4584 86.3405L58.4258 85.9805ZM65 84.3984L66.857 83.6557L66.2143 82.0491L64.5321 82.4539L65 84.3984ZM72.207 94.1016L70.959 95.6644L70.9652 95.6693L70.9714 95.6742L72.207 94.1016ZM87.3594 97.3008L86.6489 95.4312L86.6363 95.4361L87.3594 97.3008ZM88.8359 89.3555L90.0271 87.7488L90.0205 87.744L90.0139 87.7392L88.8359 89.3555ZM81.5938 86.3672L81.0334 88.2871L81.0443 88.2902L81.5938 86.3672ZM73.4023 83.9766L73.9627 82.0567L73.9548 82.0544L73.947 82.0522L73.4023 83.9766ZM68.3398 82.0078L67.4941 83.8202L67.5061 83.8258L67.5183 83.8313L68.3398 82.0078ZM63.4531 78.9492L62.0852 80.4083L62.0927 80.4153L62.1003 80.4223L63.4531 78.9492ZM60.6406 74.9062L58.8172 75.7281L58.8217 75.7378L60.6406 74.9062ZM61.6602 62.4961L59.9906 61.3949L59.9878 61.3992L61.6602 62.4961ZM68.1641 57.1523L67.3167 55.3407L67.3111 55.3434L68.1641 57.1523ZM89.293 58.418L88.2103 60.0996L90.0026 61.2535L91.0401 59.3914L89.293 58.418ZM90.6641 55.957V53.957H89.4889L88.9169 54.9836L90.6641 55.957ZM93.7541 56.4538L97.9728 72.9069L101.847 71.9134L97.6287 55.4603L93.7541 56.4538ZM99.3621 70.4867L92.823 72.35L93.9192 76.1969L100.458 74.3336L99.3621 70.4867ZM95.1184 73.3004C92.8345 69.1992 90.163 66.0543 87.0461 64.0204L84.8602 67.3703C87.2745 68.9457 89.5483 71.5196 91.6238 75.2465L95.1184 73.3004ZM87.056 64.0269C83.985 61.9969 80.6636 60.9531 77.1289 60.9531V64.9531C79.8285 64.9531 82.39 65.7375 84.8503 67.3638L87.056 64.0269ZM77.1289 60.9531C74.8651 60.9531 72.8208 61.4111 71.2007 62.5451L73.4946 65.8221C74.2182 65.3155 75.3615 64.9531 77.1289 64.9531V60.9531ZM71.1852 62.5561C69.7372 63.5904 68.625 65.0369 68.625 66.9258H72.625C72.625 66.799 72.6612 66.4174 73.5101 65.8111L71.1852 62.5561ZM68.625 66.9258C68.625 68.7638 69.4932 70.3278 70.8424 71.5871L73.5717 68.6629C72.8115 67.9534 72.625 67.3847 72.625 66.9258H68.625ZM70.8261 71.5717C72.2331 72.9148 74.5411 73.8985 77.3637 74.6878L78.441 70.8356C75.7323 70.0781 74.2435 69.304 73.588 68.6783L70.8261 71.5717ZM77.3434 74.682L86.7653 77.4242L87.8831 73.5836L78.4612 70.8414L77.3434 74.682ZM86.7725 77.4263C91.8429 78.8815 95.1512 80.7362 97.0145 82.8153L99.9933 80.1456C97.4035 77.256 93.2587 75.1263 87.8759 73.5815L86.7725 77.4263ZM97.0014 82.8005C98.8849 84.9445 99.8086 87.3937 99.8086 90.2344H103.809C103.809 86.4188 102.529 83.0321 100.006 80.1605L97.0014 82.8005ZM99.8086 90.2344C99.8086 93.8627 98.3991 96.9089 95.435 99.4818L98.0572 102.503C101.843 99.2161 103.809 95.0904 103.809 90.2344H99.8086ZM95.4445 99.4737C92.0798 102.358 87.8724 103.844 82.6836 103.844V107.844C88.6979 107.844 93.8655 106.095 98.0477 102.511L95.4445 99.4737ZM82.6836 103.844C80.25 103.844 78.0565 103.537 76.0883 102.944L74.9351 106.774C77.3263 107.494 79.9141 107.844 82.6836 107.844V103.844ZM76.1071 102.95C74.1459 102.338 72.0432 101.308 69.797 99.8177L67.5858 103.151C70.074 104.802 72.5182 106.021 74.9163 106.769L76.1071 102.95ZM66.8608 100.679L65.3139 104.195L68.9752 105.805L70.522 102.29L66.8608 100.679ZM67.1445 103H61.9062V107H67.1445V103ZM63.8736 104.64L60.3931 85.6205L56.4584 86.3405L59.9389 105.36L63.8736 104.64ZM58.8937 87.925L65.4679 86.3429L64.5321 82.4539L57.9579 84.036L58.8937 87.925ZM63.143 85.1412C64.8186 89.3302 67.4309 92.847 70.959 95.6644L73.455 92.5387C70.4675 90.153 68.2751 87.2011 66.857 83.6557L63.143 85.1412ZM70.9714 95.6742C74.5801 98.5096 78.6071 99.9688 83 99.9688V95.9688C79.5648 95.9688 76.3965 94.8498 73.4427 92.5289L70.9714 95.6742ZM83 99.9688C84.908 99.9688 86.6275 99.7297 88.0824 99.1655L86.6363 95.4361C85.7944 95.7625 84.6076 95.9688 83 95.9688V99.9688ZM88.0698 99.1703C89.506 98.6246 90.7395 97.8027 91.6074 96.6223L88.3848 94.2527C88.0808 94.6661 87.5565 95.0863 86.6489 95.4312L88.0698 99.1703ZM91.6074 96.6223C92.4009 95.5431 92.875 94.3167 92.875 92.9766H88.875C88.875 93.324 88.7632 93.7381 88.3848 94.2527L91.6074 96.6223ZM92.875 92.9766C92.875 90.8047 91.7788 89.0476 90.0271 87.7488L87.6448 90.9621C88.6118 91.679 88.875 92.3359 88.875 92.9766H92.875ZM90.0139 87.7392C88.3283 86.5107 85.6224 85.4382 82.1432 84.4441L81.0443 88.2902C84.4558 89.2649 86.578 90.1846 87.658 90.9718L90.0139 87.7392ZM82.1541 84.4473L73.9627 82.0567L72.842 85.8965L81.0334 88.2871L82.1541 84.4473ZM73.947 82.0522C72.8464 81.7407 71.264 81.1317 69.1614 80.1843L67.5183 83.8313C69.6813 84.8058 71.4739 85.5093 72.8577 85.901L73.947 82.0522ZM69.1856 80.1954C67.1797 79.2593 65.7491 78.3423 64.8059 77.4762L62.1003 80.4223C63.454 81.6655 65.2813 82.7875 67.4941 83.8202L69.1856 80.1954ZM64.821 77.4901C63.9151 76.6408 63.1195 75.5184 62.4596 74.0747L58.8217 75.7378C59.6617 77.5753 60.7412 79.1482 62.0852 80.4083L64.821 77.4901ZM62.464 74.0845C61.8306 72.6791 61.5156 71.2132 61.5156 69.668H57.5156C57.5156 71.779 57.9506 73.8052 58.8173 75.728L62.464 74.0845ZM61.5156 69.668C61.5156 67.457 62.1161 65.4475 63.3325 63.593L59.9878 61.3992C58.3448 63.9041 57.5156 66.6758 57.5156 69.668H61.5156ZM63.3297 63.5973C64.5424 61.7587 66.397 60.1968 69.0171 58.9613L67.3111 55.3434C64.1655 56.8267 61.6842 58.8273 59.9906 61.3949L63.3297 63.5973ZM69.0114 58.964C71.6279 57.7401 74.5457 57.1133 77.7969 57.1133V53.1133C74.0168 53.1133 70.5128 53.8458 67.3167 55.3407L69.0114 58.964ZM77.7969 57.1133C81.6722 57.1133 85.1254 58.1134 88.2103 60.0996L90.3756 56.7364C86.6168 54.3163 82.4059 53.1133 77.7969 53.1133V57.1133ZM91.0401 59.3914L92.4112 56.9304L88.9169 54.9836L87.5458 57.4446L91.0401 59.3914ZM90.6641 57.957H95.6914V53.957H90.6641V57.957Z" fill="black"/>
<path d="M110.875 71.0312C112.656 71.0312 114.208 71.3802 115.531 72.0781C116.854 72.776 117.87 73.7292 118.578 74.9375C119.297 76.1354 119.656 77.5417 119.656 79.1562C119.656 81.5938 118.865 83.5729 117.281 85.0938C115.698 86.6146 113.583 87.375 110.938 87.375C108.24 87.375 106.094 86.6094 104.5 85.0781C102.958 83.6198 102.188 81.6458 102.188 79.1562C102.188 77.5208 102.536 76.1146 103.234 74.9375C103.943 73.7604 104.964 72.8177 106.297 72.1094C107.63 71.3906 109.156 71.0312 110.875 71.0312ZM110.938 74.4531C110.344 74.4531 109.786 74.6302 109.266 74.9844C108.745 75.3385 108.339 75.8594 108.047 76.5469C107.766 77.2344 107.625 78.1094 107.625 79.1719C107.625 80.2656 107.766 81.1719 108.047 81.8906C108.328 82.6094 108.714 83.1406 109.203 83.4844C109.703 83.8281 110.25 84 110.844 84C111.76 84 112.547 83.6146 113.203 82.8438C113.859 82.0625 114.188 80.8542 114.188 79.2188C114.188 77.6354 113.88 76.4479 113.266 75.6562C112.661 74.8542 111.885 74.4531 110.938 74.4531ZM130.151 64.0625V82.3438C130.151 82.9583 130.177 83.3229 130.229 83.4375C130.302 83.6458 130.464 83.7969 130.714 83.8906C130.87 83.9531 131.292 83.9844 131.979 83.9844H132.526V87H122.854V83.9844H123.448C124.073 83.9844 124.474 83.9479 124.651 83.875C124.828 83.7917 124.959 83.6667 125.042 83.5C125.125 83.3229 125.167 82.9375 125.167 82.3438V68.4062H122.854V65.375C124.719 65.25 126.646 64.8125 128.636 64.0625H130.151ZM134.787 71.4062L142.084 71.2656V81.4062C142.084 82.125 142.125 82.6042 142.209 82.8438C142.303 83.0833 142.464 83.2812 142.693 83.4375C142.933 83.5833 143.23 83.6562 143.584 83.6562C144.105 83.6562 144.657 83.5312 145.24 83.2812C145.469 83.1771 146.079 82.8073 147.068 82.1719V76.0781C147.068 75.5469 147.026 75.1823 146.943 74.9844C146.86 74.7865 146.74 74.6458 146.584 74.5625C146.428 74.4688 146.125 74.4219 145.678 74.4219H144.771V71.4062L152.084 71.2656V82.4531C152.084 83.0365 152.115 83.4062 152.178 83.5625C152.25 83.7083 152.36 83.8177 152.506 83.8906C152.662 83.9531 153.026 83.9844 153.599 83.9844H154.428V87L147.568 87.1875V85.3438C146.651 86.0208 145.73 86.5312 144.803 86.875C143.875 87.2083 142.943 87.375 142.006 87.375C141.256 87.375 140.563 87.25 139.928 87C139.303 86.7604 138.776 86.4375 138.349 86.0312C137.922 85.6146 137.605 85.1302 137.396 84.5781C137.188 84.026 137.084 83.3177 137.084 82.4531V76.0156C137.084 75.4219 137.047 75.0469 136.974 74.8906C136.912 74.7344 136.803 74.6198 136.646 74.5469C136.49 74.4635 136.157 74.4219 135.646 74.4219H134.787V71.4062ZM164.423 66.0469V71.4062H169.454V74.7344H164.423V80.1719C164.423 81.401 164.485 82.1927 164.61 82.5469C164.745 82.8906 164.99 83.1667 165.344 83.375C165.813 83.6562 166.35 83.7969 166.954 83.7969C168.027 83.7969 169.094 83.4479 170.157 82.75V86.0938C169.251 86.5208 168.428 86.8229 167.688 87C166.959 87.1667 166.167 87.25 165.313 87.25C164.344 87.25 163.485 87.1302 162.735 86.8906C161.995 86.6406 161.36 86.2917 160.829 85.8438C160.308 85.3854 159.943 84.901 159.735 84.3906C159.537 83.8802 159.438 83.1406 159.438 82.1719V74.7344H157.094V71.7344C157.928 71.4635 158.641 71.0781 159.235 70.5781C159.829 70.0677 160.303 69.4583 160.657 68.75C161.021 68.0417 161.271 67.1406 161.407 66.0469H164.423ZM178.043 64.0625C178.834 64.0625 179.506 64.3438 180.058 64.9062C180.621 65.4583 180.902 66.1302 180.902 66.9219C180.902 67.724 180.621 68.4062 180.058 68.9688C179.506 69.5208 178.834 69.7969 178.043 69.7969C177.251 69.7969 176.574 69.5208 176.011 68.9688C175.459 68.4062 175.183 67.7292 175.183 66.9375C175.183 66.1562 175.47 65.4844 176.043 64.9219C176.615 64.349 177.282 64.0625 178.043 64.0625ZM180.574 71.0312V82.5781C180.574 83.1302 180.605 83.4688 180.668 83.5938C180.73 83.7188 180.839 83.8177 180.996 83.8906C181.162 83.9531 181.527 83.9844 182.089 83.9844H182.933V87H173.277V83.9844H174.105C174.647 83.9844 174.99 83.9583 175.136 83.9062C175.293 83.8438 175.407 83.7448 175.48 83.6094C175.553 83.474 175.589 83.2031 175.589 82.7969V75.3438H173.277V72.4062C174.1 72.3646 174.886 72.276 175.636 72.1406C176.397 72.0052 177.074 71.8438 177.668 71.6562C178.053 71.5312 178.527 71.3229 179.089 71.0312H180.574ZM194.569 71.0312C196.35 71.0312 197.902 71.3802 199.225 72.0781C200.548 72.776 201.564 73.7292 202.272 74.9375C202.991 76.1354 203.35 77.5417 203.35 79.1562C203.35 81.5938 202.558 83.5729 200.975 85.0938C199.392 86.6146 197.277 87.375 194.631 87.375C191.933 87.375 189.787 86.6094 188.194 85.0781C186.652 83.6198 185.881 81.6458 185.881 79.1562C185.881 77.5208 186.23 76.1146 186.928 74.9375C187.636 73.7604 188.657 72.8177 189.991 72.1094C191.324 71.3906 192.85 71.0312 194.569 71.0312ZM194.631 74.4531C194.037 74.4531 193.48 74.6302 192.959 74.9844C192.439 75.3385 192.032 75.8594 191.741 76.5469C191.459 77.2344 191.319 78.1094 191.319 79.1719C191.319 80.2656 191.459 81.1719 191.741 81.8906C192.022 82.6094 192.407 83.1406 192.897 83.4844C193.397 83.8281 193.944 84 194.537 84C195.454 84 196.241 83.6146 196.897 82.8438C197.553 82.0625 197.881 80.8542 197.881 79.2188C197.881 77.6354 197.574 76.4479 196.959 75.6562C196.355 74.8542 195.579 74.4531 194.631 74.4531ZM213.798 71.0312V73.1094C214.975 72.3073 215.98 71.7604 216.814 71.4688C217.658 71.1771 218.517 71.0312 219.392 71.0312C220.402 71.0312 221.293 71.2448 222.064 71.6719C222.845 72.099 223.413 72.6354 223.767 73.2812C224.121 73.9167 224.298 74.8229 224.298 76V82.5C224.298 83.0521 224.335 83.4062 224.408 83.5625C224.491 83.7188 224.616 83.8333 224.783 83.9062C224.908 83.9583 225.283 83.9844 225.908 83.9844H226.673V87H217.501V83.9844C218.199 83.974 218.59 83.9583 218.673 83.9375C218.934 83.8646 219.105 83.7448 219.189 83.5781C219.272 83.4115 219.314 83.0521 219.314 82.5V76.7656C219.314 76.026 219.236 75.5469 219.079 75.3281C218.829 74.9635 218.434 74.7812 217.892 74.7812C217.444 74.7812 216.965 74.8802 216.454 75.0781C215.944 75.276 215.256 75.6823 214.392 76.2969V82.5C214.392 83.1771 214.465 83.5938 214.611 83.75C214.756 83.9062 215.105 83.9844 215.658 83.9844H216.158V87H207.079V83.9844H207.533C208.251 83.9844 208.694 83.9531 208.861 83.8906C209.038 83.8281 209.168 83.7188 209.251 83.5625C209.345 83.4062 209.392 83.099 209.392 82.6406V75.3594H207.079V72.3438C208.954 72.1146 210.71 71.6771 212.345 71.0312H213.798Z" fill="black"/>
<path d="M2.60156 16.957H32.8359C34.7812 16.957 36.9023 17.1328 39.1992 17.4844C41.5195 17.8359 43.6055 18.6094 45.457 19.8047C47.332 21 48.7852 22.5117 49.8164 24.3398C50.8477 26.168 51.3633 28.2305 51.3633 30.5273C51.3633 34.2539 50.0273 37.2773 47.3555 39.5977C44.707 41.8945 41.5664 43.3945 37.9336 44.0977L48.0234 55.8398L48.4453 56.3672C49.1016 57.1641 49.6992 57.7617 50.2383 58.1602C50.7773 58.5352 51.3164 58.8047 51.8555 58.9688C52.3945 59.1328 53.1445 59.2148 54.1055 59.2148H56.2148V66H40.5L24.75 44.8711H20.6719V54.6445C20.6719 56.332 20.7656 57.4102 20.9531 57.8789C21.1406 58.3242 21.4336 58.6641 21.832 58.8984C22.2539 59.1094 23.0859 59.2148 24.3281 59.2148H26.5781V66H2.60156V59.2148H4.78125C5.92969 59.2148 6.73828 59.0977 7.20703 58.8633C7.69922 58.6055 8.0625 58.2305 8.29688 57.7383C8.41406 57.457 8.47266 56.5781 8.47266 55.1016V27.5039C8.47266 26.4258 8.37891 25.6641 8.19141 25.2188C8.02734 24.75 7.74609 24.4453 7.34766 24.3047C6.78516 24.0469 6.14062 23.918 5.41406 23.918L4.42969 23.9531H2.60156V16.957ZM20.6719 25.0078V37.6992H27.9492C30.8086 37.6992 32.9414 37.4414 34.3477 36.9258C35.7773 36.3867 36.8438 35.625 37.5469 34.6406C38.2734 33.6562 38.6367 32.4609 38.6367 31.0547C38.6367 29.7656 38.2969 28.6641 37.6172 27.75C36.9609 26.8125 36.0117 26.1211 34.7695 25.6758C33.5508 25.2305 31.5469 25.0078 28.7578 25.0078H20.6719Z" fill="#D5E4F8"/>
<path d="M2.60156 16.957V14.957H0.601562V16.957H2.60156ZM39.1992 17.4844L38.8966 19.4614L38.8996 19.4618L39.1992 17.4844ZM45.457 19.8047L44.3723 21.485L44.3819 21.4911L45.457 19.8047ZM47.3555 39.5977L48.6658 41.1086L48.6668 41.1077L47.3555 39.5977ZM37.9336 44.0977L37.5535 42.1341L34.1718 42.7886L36.4167 45.4011L37.9336 44.0977ZM48.0234 55.8398L49.5852 54.5905L49.5632 54.563L49.5403 54.5364L48.0234 55.8398ZM48.4453 56.3672L46.8836 57.6166L46.8924 57.6277L46.9015 57.6386L48.4453 56.3672ZM50.2383 58.1602L49.0495 59.7685L49.0726 59.7856L49.0962 59.802L50.2383 58.1602ZM56.2148 59.2148H58.2148V57.2148H56.2148V59.2148ZM56.2148 66V68H58.2148V66H56.2148ZM40.5 66L38.8965 67.1953L39.4963 68H40.5V66ZM24.75 44.8711L26.3535 43.6758L25.7537 42.8711H24.75V44.8711ZM20.6719 44.8711V42.8711H18.6719V44.8711H20.6719ZM20.9531 57.8789L19.0962 58.6217L19.1029 58.6384L19.1099 58.655L20.9531 57.8789ZM21.832 58.8984L20.818 60.6223L20.8767 60.6568L20.9376 60.6873L21.832 58.8984ZM26.5781 59.2148H28.5781V57.2148H26.5781V59.2148ZM26.5781 66V68H28.5781V66H26.5781ZM2.60156 66H0.601562V68H2.60156V66ZM2.60156 59.2148V57.2148H0.601562V59.2148H2.60156ZM7.20703 58.8633L8.10146 60.6521L8.11833 60.6437L8.13505 60.6349L7.20703 58.8633ZM8.29688 57.7383L10.1026 58.5981L10.1239 58.5533L10.143 58.5075L8.29688 57.7383ZM8.19141 25.2188L6.30369 25.8795L6.32413 25.9378L6.34814 25.9949L8.19141 25.2188ZM7.34766 24.3047L6.51435 26.1228L6.59665 26.1605L6.68202 26.1907L7.34766 24.3047ZM5.41406 23.918V21.918H5.37836L5.34268 21.9192L5.41406 23.918ZM4.42969 23.9531V25.9531H4.46539L4.50107 25.9519L4.42969 23.9531ZM2.60156 23.9531H0.601562V25.9531H2.60156V23.9531ZM20.6719 25.0078V23.0078H18.6719V25.0078H20.6719ZM20.6719 37.6992H18.6719V39.6992H20.6719V37.6992ZM34.3477 36.9258L35.0362 38.8035L35.0447 38.8004L35.0533 38.7972L34.3477 36.9258ZM37.5469 34.6406L35.9377 33.4529L35.9285 33.4655L35.9194 33.4781L37.5469 34.6406ZM37.6172 27.75L35.9787 28.8969L35.9952 28.9204L36.0123 28.9434L37.6172 27.75ZM34.7695 25.6758L34.0831 27.5543L34.0946 27.5585L34.7695 25.6758ZM2.60156 18.957H32.8359V14.957H2.60156V18.957ZM32.8359 18.957C34.6627 18.957 36.6813 19.1223 38.8966 19.4614L39.5018 15.5074C37.1234 15.1434 34.8998 14.957 32.8359 14.957V18.957ZM38.8996 19.4618C40.9586 19.7738 42.7737 20.4529 44.3723 21.485L46.5418 18.1244C44.4373 16.7658 42.0805 15.8981 39.4988 15.5069L38.8996 19.4618ZM44.3819 21.4911C45.9972 22.5209 47.214 23.7971 48.0744 25.3225L51.5584 23.3572C50.3563 21.2263 48.6668 19.4791 46.5321 18.1182L44.3819 21.4911ZM48.0744 25.3225C48.9209 26.823 49.3633 28.5414 49.3633 30.5273H53.3633C53.3633 27.9195 52.7744 25.513 51.5584 23.3572L48.0744 25.3225ZM49.3633 30.5273C49.3633 33.7096 48.2528 36.1695 46.0441 38.0876L48.6668 41.1077C51.8019 38.3852 53.3633 34.7982 53.3633 30.5273H49.3633ZM46.0451 38.0867C43.6766 40.1408 40.8618 41.4938 37.5535 42.1341L38.3136 46.0612C42.271 45.2953 45.7375 43.6482 48.6658 41.1086L46.0451 38.0867ZM36.4167 45.4011L46.5065 57.1433L49.5403 54.5364L39.4505 42.7942L36.4167 45.4011ZM46.4617 57.0892L46.8836 57.6166L50.0071 55.1178L49.5852 54.5905L46.4617 57.0892ZM46.9015 57.6386C47.6123 58.5018 48.3281 59.2353 49.0495 59.7685L51.4271 56.5518C51.0703 56.2881 50.5908 55.8263 49.9892 55.0958L46.9015 57.6386ZM49.0962 59.802C49.7788 60.2769 50.5046 60.6482 51.2731 60.8821L52.4378 57.0554C52.1282 56.9612 51.7758 56.7934 51.3804 56.5183L49.0962 59.802ZM51.2731 60.8821C52.0879 61.1301 53.0654 61.2148 54.1055 61.2148V57.2148C53.2237 57.2148 52.7011 57.1355 52.4378 57.0554L51.2731 60.8821ZM54.1055 61.2148H56.2148V57.2148H54.1055V61.2148ZM54.2148 59.2148V66H58.2148V59.2148H54.2148ZM56.2148 64H40.5V68H56.2148V64ZM42.1035 64.8047L26.3535 43.6758L23.1465 46.0664L38.8965 67.1953L42.1035 64.8047ZM24.75 42.8711H20.6719V46.8711H24.75V42.8711ZM18.6719 44.8711V54.6445H22.6719V44.8711H18.6719ZM18.6719 54.6445C18.6719 55.518 18.6959 56.2729 18.7497 56.892C18.7987 57.456 18.8855 58.0951 19.0962 58.6217L22.8101 57.1361C22.8332 57.194 22.7794 57.0597 22.7347 56.5455C22.6948 56.0865 22.6719 55.4585 22.6719 54.6445H18.6719ZM19.1099 58.655C19.4564 59.4781 20.0307 60.1592 20.818 60.6223L22.8461 57.1746C22.8366 57.169 22.8321 57.1654 22.8308 57.1643C22.8295 57.1633 22.829 57.1627 22.8283 57.1619C22.8275 57.161 22.8245 57.1574 22.8195 57.1492C22.8144 57.1409 22.8062 57.1261 22.7964 57.1028L19.1099 58.655ZM20.9376 60.6873C21.4495 60.9432 22.027 61.0573 22.521 61.1199C23.0497 61.1869 23.6588 61.2148 24.3281 61.2148V57.2148C23.7552 57.2148 23.3273 57.1901 23.024 57.1516C22.6859 57.1088 22.6364 57.0646 22.7265 57.1096L20.9376 60.6873ZM24.3281 61.2148H26.5781V57.2148H24.3281V61.2148ZM24.5781 59.2148V66H28.5781V59.2148H24.5781ZM26.5781 64H2.60156V68H26.5781V64ZM4.60156 66V59.2148H0.601562V66H4.60156ZM2.60156 61.2148H4.78125V57.2148H2.60156V61.2148ZM4.78125 61.2148C5.95484 61.2148 7.17994 61.1129 8.10146 60.6521L6.3126 57.0744C6.34504 57.0582 6.25944 57.1045 5.96217 57.1476C5.68231 57.1882 5.29471 57.2148 4.78125 57.2148V61.2148ZM8.13505 60.6349C9.00284 60.1804 9.67825 59.4893 10.1026 58.5981L6.49115 56.8784C6.44675 56.9717 6.39559 57.0306 6.27902 57.0916L8.13505 60.6349ZM10.143 58.5075C10.2689 58.2055 10.3229 57.9018 10.3512 57.7149C10.3846 57.4947 10.4076 57.2521 10.4243 57.0012C10.4578 56.4979 10.4727 55.8589 10.4727 55.1016H6.47266C6.47266 55.8207 6.45818 56.3595 6.43314 56.7351C6.42057 56.9237 6.40693 57.0459 6.39635 57.1157C6.38072 57.2188 6.38349 57.1304 6.45072 56.9691L10.143 58.5075ZM10.4727 55.1016V27.5039H6.47266V55.1016H10.4727ZM10.4727 27.5039C10.4727 26.4077 10.3912 25.2894 10.0347 24.4426L6.34814 25.9949C6.34113 25.9782 6.3814 26.0765 6.41732 26.3683C6.45114 26.6431 6.47266 27.0166 6.47266 27.5039H10.4727ZM10.0791 24.558C9.75393 23.6289 9.08734 22.7978 8.0133 22.4187L6.68202 26.1907C6.58021 26.1547 6.4724 26.0869 6.38781 25.9952C6.31008 25.911 6.29447 25.8531 6.30369 25.8795L10.0791 24.558ZM8.18097 22.4866C7.31536 22.0898 6.37861 21.918 5.41406 21.918V25.918C5.90264 25.918 6.25495 26.0039 6.51435 26.1228L8.18097 22.4866ZM5.34268 21.9192L4.3583 21.9544L4.50107 25.9519L5.48545 25.9167L5.34268 21.9192ZM4.42969 21.9531H2.60156V25.9531H4.42969V21.9531ZM4.60156 23.9531V16.957H0.601562V23.9531H4.60156ZM18.6719 25.0078V37.6992H22.6719V25.0078H18.6719ZM20.6719 39.6992H27.9492V35.6992H20.6719V39.6992ZM27.9492 39.6992C30.87 39.6992 33.2905 39.4436 35.0362 38.8035L33.6591 35.048C32.5923 35.4392 30.7472 35.6992 27.9492 35.6992V39.6992ZM35.0533 38.7972C36.7563 38.1551 38.1871 37.1853 39.1743 35.8031L35.9194 33.4781C35.5004 34.0647 34.7984 34.6184 33.642 35.0544L35.0533 38.7972ZM39.156 35.8283C40.1733 34.4501 40.6367 32.822 40.6367 31.0547H36.6367C36.6367 32.0999 36.3736 32.8624 35.9377 33.4529L39.156 35.8283ZM40.6367 31.0547C40.6367 29.3949 40.1915 27.8603 39.2221 26.5566L36.0123 28.9434C36.4022 29.4678 36.6367 30.1363 36.6367 31.0547H40.6367ZM39.2557 26.6031C38.3271 25.2765 37.0145 24.356 35.4445 23.7931L34.0946 27.5585C35.0089 27.8862 35.5948 28.3485 35.9787 28.8969L39.2557 26.6031ZM35.4559 23.7973C33.8832 23.2226 31.5746 23.0078 28.7578 23.0078V27.0078C31.5191 27.0078 33.2184 27.2383 34.0831 27.5543L35.4559 23.7973ZM28.7578 23.0078H20.6719V27.0078H28.7578V23.0078Z" fill="black"/>
<path d="M65.3281 47.2188L67.4688 49.375C66.2396 50.7812 64.9844 51.8021 63.7031 52.4375C62.4323 53.0625 61.0573 53.375 59.5781 53.375C57.2031 53.375 55.2031 52.5729 53.5781 50.9688C51.9531 49.3542 51.1406 47.4062 51.1406 45.125C51.1406 43.625 51.5052 42.2552 52.2344 41.0156C52.9635 39.7656 53.974 38.7917 55.2656 38.0938C56.5573 37.3854 58.0208 37.0312 59.6562 37.0312C60.6979 37.0312 61.6458 37.1823 62.5 37.4844C63.3542 37.7865 64.099 38.2188 64.7344 38.7812C65.3802 39.3438 65.8958 40.026 66.2812 40.8281C66.6771 41.6198 66.9479 42.4427 67.0938 43.2969C67.1562 43.724 67.1875 44.401 67.1875 45.3281H56.6719C56.6927 46.651 57.0781 47.724 57.8281 48.5469C58.5885 49.3594 59.5156 49.7656 60.6094 49.7656C61.3073 49.7656 62.0677 49.5573 62.8906 49.1406C63.7135 48.7135 64.526 48.0729 65.3281 47.2188ZM62.2031 42.7031C62.1302 42.0781 61.9792 41.5885 61.75 41.2344C61.5312 40.8698 61.2292 40.5833 60.8438 40.375C60.4688 40.1562 60.0729 40.0469 59.6562 40.0469C59.2188 40.0469 58.7969 40.1562 58.3906 40.375C57.9844 40.5938 57.6562 40.8906 57.4062 41.2656C57.1667 41.6406 57.0104 42.1198 56.9375 42.7031H62.2031ZM77.87 30.0625V48.3438C77.87 48.9583 77.896 49.3229 77.9481 49.4375C78.021 49.6458 78.1825 49.7969 78.4325 49.8906C78.5888 49.9531 79.0106 49.9844 79.6981 49.9844H80.245V53H70.5731V49.9844H71.1669C71.7919 49.9844 72.1929 49.9479 72.37 49.875C72.5471 49.7917 72.6773 49.6667 72.7606 49.5C72.844 49.3229 72.8856 48.9375 72.8856 48.3438V34.4062H70.5731V31.375C72.4377 31.25 74.3648 30.8125 76.3544 30.0625H77.87ZM91.5525 37.0312C93.3337 37.0312 94.8858 37.3802 96.2087 38.0781C97.5317 38.776 98.5473 39.7292 99.2556 40.9375C99.9744 42.1354 100.334 43.5417 100.334 45.1562C100.334 47.5938 99.5421 49.5729 97.9587 51.0938C96.3754 52.6146 94.2608 53.375 91.615 53.375C88.9171 53.375 86.7712 52.6094 85.1775 51.0781C83.6358 49.6198 82.865 47.6458 82.865 45.1562C82.865 43.5208 83.214 42.1146 83.9119 40.9375C84.6202 39.7604 85.641 38.8177 86.9744 38.1094C88.3077 37.3906 89.8337 37.0312 91.5525 37.0312ZM91.615 40.4531C91.0212 40.4531 90.464 40.6302 89.9431 40.9844C89.4223 41.3385 89.016 41.8594 88.7244 42.5469C88.4431 43.2344 88.3025 44.1094 88.3025 45.1719C88.3025 46.2656 88.4431 47.1719 88.7244 47.8906C89.0056 48.6094 89.391 49.1406 89.8806 49.4844C90.3806 49.8281 90.9275 50 91.5212 50C92.4379 50 93.2244 49.6146 93.8806 48.8438C94.5369 48.0625 94.865 46.8542 94.865 45.2188C94.865 43.6354 94.5577 42.4479 93.9431 41.6562C93.339 40.8542 92.5629 40.4531 91.615 40.4531ZM110.86 32.0469V37.4062H115.891V40.7344H110.86V46.1719C110.86 47.401 110.923 48.1927 111.048 48.5469C111.183 48.8906 111.428 49.1667 111.782 49.375C112.251 49.6562 112.787 49.7969 113.391 49.7969C114.464 49.7969 115.532 49.4479 116.594 48.75V52.0938C115.688 52.5208 114.865 52.8229 114.126 53C113.396 53.1667 112.605 53.25 111.751 53.25C110.782 53.25 109.923 53.1302 109.173 52.8906C108.433 52.6406 107.798 52.2917 107.266 51.8438C106.745 51.3854 106.381 50.901 106.173 50.3906C105.975 49.8802 105.876 49.1406 105.876 48.1719V40.7344H103.532V37.7344C104.365 37.4635 105.079 37.0781 105.673 36.5781C106.266 36.0677 106.74 35.4583 107.094 34.75C107.459 34.0417 107.709 33.1406 107.844 32.0469H110.86ZM133.808 47.2188L135.949 49.375C134.72 50.7812 133.464 51.8021 132.183 52.4375C130.912 53.0625 129.537 53.375 128.058 53.375C125.683 53.375 123.683 52.5729 122.058 50.9688C120.433 49.3542 119.621 47.4062 119.621 45.125C119.621 43.625 119.985 42.2552 120.714 41.0156C121.444 39.7656 122.454 38.7917 123.746 38.0938C125.037 37.3854 126.501 37.0312 128.136 37.0312C129.178 37.0312 130.126 37.1823 130.98 37.4844C131.834 37.7865 132.579 38.2188 133.214 38.7812C133.86 39.3438 134.376 40.026 134.761 40.8281C135.157 41.6198 135.428 42.4427 135.574 43.2969C135.636 43.724 135.668 44.401 135.668 45.3281H125.152C125.173 46.651 125.558 47.724 126.308 48.5469C127.069 49.3594 127.996 49.7656 129.089 49.7656C129.787 49.7656 130.548 49.5573 131.371 49.1406C132.194 48.7135 133.006 48.0729 133.808 47.2188ZM130.683 42.7031C130.61 42.0781 130.459 41.5885 130.23 41.2344C130.011 40.8698 129.709 40.5833 129.324 40.375C128.949 40.1562 128.553 40.0469 128.136 40.0469C127.699 40.0469 127.277 40.1562 126.871 40.375C126.464 40.5938 126.136 40.8906 125.886 41.2656C125.647 41.6406 125.49 42.1198 125.418 42.7031H130.683ZM153.6 47.0938L155.897 49.1094C154.668 50.599 153.392 51.6823 152.069 52.3594C150.746 53.0365 149.329 53.375 147.819 53.375C145.402 53.375 143.381 52.5885 141.756 51.0156C140.142 49.4427 139.334 47.526 139.334 45.2656C139.334 43.7344 139.709 42.3333 140.459 41.0625C141.22 39.7917 142.256 38.8021 143.569 38.0938C144.892 37.3854 146.449 37.0312 148.241 37.0312C150.386 37.0312 152.136 37.5312 153.491 38.5312C154.855 39.5208 155.537 40.5677 155.537 41.6719C155.537 42.1406 155.428 42.5625 155.209 42.9375C155.001 43.3021 154.678 43.599 154.241 43.8281C153.803 44.0573 153.34 44.1719 152.85 44.1719C152.454 44.1719 152.1 44.0938 151.787 43.9375C151.475 43.7812 151.215 43.5833 151.006 43.3438C150.912 43.2396 150.73 42.9167 150.459 42.375C150.116 41.6979 149.85 41.25 149.662 41.0312C149.475 40.8125 149.251 40.6458 148.991 40.5312C148.73 40.4062 148.433 40.3438 148.1 40.3438C147.558 40.3438 147.037 40.5208 146.537 40.875C146.048 41.2188 145.642 41.7448 145.319 42.4531C145.006 43.1615 144.85 43.9531 144.85 44.8281C144.85 45.7865 145.037 46.651 145.412 47.4219C145.787 48.1823 146.287 48.7604 146.912 49.1562C147.548 49.5521 148.246 49.75 149.006 49.75C149.735 49.75 150.47 49.5521 151.209 49.1562C151.949 48.7604 152.746 48.0729 153.6 47.0938ZM166.454 30.0625V38.7344C167.486 38.1094 168.397 37.6719 169.189 37.4219C169.98 37.1615 170.746 37.0312 171.486 37.0312C172.475 37.0312 173.355 37.2448 174.126 37.6719C174.908 38.0885 175.48 38.6146 175.845 39.25C176.21 39.8854 176.392 40.7344 176.392 41.7969V48.3125C176.392 48.9479 176.418 49.3333 176.47 49.4688C176.553 49.6667 176.71 49.8125 176.939 49.9062C177.074 49.9583 177.444 49.9844 178.048 49.9844H178.783V53H169.595V49.9844H170.064C170.512 49.9844 170.819 49.9427 170.986 49.8594C171.152 49.776 171.267 49.6615 171.329 49.5156C171.392 49.3594 171.423 48.9896 171.423 48.4062V43.0156C171.423 42.3073 171.376 41.8385 171.283 41.6094C171.199 41.3698 171.043 41.1771 170.814 41.0312C170.585 40.875 170.298 40.7969 169.954 40.7969C169.465 40.7969 168.949 40.8958 168.408 41.0938C167.876 41.2917 167.225 41.6562 166.454 42.1875V48.4062C166.454 49 166.486 49.3698 166.548 49.5156C166.611 49.6615 166.73 49.776 166.908 49.8594C167.085 49.9427 167.418 49.9844 167.908 49.9844H168.251V53H159.158V49.9844H160.033C160.543 49.9844 160.866 49.9531 161.001 49.8906C161.147 49.8177 161.256 49.7031 161.329 49.5469C161.402 49.3802 161.439 49.0573 161.439 48.5781V34.4219H159.158V31.3906C160.022 31.3385 160.991 31.1927 162.064 30.9531C163.147 30.7031 164.121 30.4062 164.986 30.0625H166.454Z" fill="black"/>
</svg>
