<svg width="127" height="127" viewBox="0 0 127 127" fill="none" xmlns="http://www.w3.org/2000/svg">
<path d="M105.463 57.8601H20.7768C18.017 57.8601 15.7798 60.0973 15.7798 62.8571V63.3831C15.7798 66.1429 18.017 68.3801 20.7768 68.3801H105.463C108.223 68.3801 110.46 66.1429 110.46 63.3831V62.8571C110.46 60.0973 108.223 57.8601 105.463 57.8601Z" fill="#FBCEB1"/>
<path d="M105.463 84.1599H20.7768C18.017 84.1599 15.7798 86.3971 15.7798 89.1569V89.6829C15.7798 92.4427 18.017 94.6799 20.7768 94.6799H105.463C108.223 94.6799 110.46 92.4427 110.46 89.6829V89.1569C110.46 86.3971 108.223 84.1599 105.463 84.1599Z" fill="#FBCEB1"/>
<path d="M105.463 31.5601H20.7768C18.017 31.5601 15.7798 33.7973 15.7798 36.5571V37.0831C15.7798 39.8428 18.017 42.0801 20.7768 42.0801H105.463C108.223 42.0801 110.46 39.8428 110.46 37.0831V36.5571C110.46 33.7973 108.223 31.5601 105.463 31.5601Z" fill="#FBCEB1"/>
</svg>
