<svg width="89" height="90" viewBox="0 0 89 90" fill="none" xmlns="http://www.w3.org/2000/svg">
<path d="M73.9172 41.25H14.5619C12.6276 41.25 11.0596 42.845 11.0596 44.8125V45.1875C11.0596 47.155 12.6276 48.75 14.5619 48.75H73.9172C75.8515 48.75 77.4196 47.155 77.4196 45.1875V44.8125C77.4196 42.845 75.8515 41.25 73.9172 41.25Z" fill="#D5E4F8"/>
<path d="M73.9172 60H14.5619C12.6276 60 11.0596 61.595 11.0596 63.5625V63.9375C11.0596 65.905 12.6276 67.5 14.5619 67.5H73.9172C75.8515 67.5 77.4196 65.905 77.4196 63.9375V63.5625C77.4196 61.595 75.8515 60 73.9172 60Z" fill="#D5E4F8"/>
<path d="M73.9172 22.5H14.5619C12.6276 22.5 11.0596 24.095 11.0596 26.0625V26.4375C11.0596 28.405 12.6276 30 14.5619 30H73.9172C75.8515 30 77.4196 28.405 77.4196 26.4375V26.0625C77.4196 24.095 75.8515 22.5 73.9172 22.5Z" fill="#D5E4F8"/>
</svg>
